<svg width="62" height="62" viewBox="0 0 62 62" fill="none" xmlns="http://www.w3.org/2000/svg">
<path d="M31.0322 3.76294e-05C37.1627 0.00640453 43.1537 1.83034 48.2478 5.24124C53.3418 8.65214 57.3101 13.4969 59.651 19.1629C61.9919 24.8289 62.6003 31.0617 61.3992 37.0734C60.1981 43.0852 57.2415 48.6058 52.9032 52.9374C48.5649 57.2689 43.0397 60.2169 37.0261 61.4086C31.0125 62.6004 24.7806 61.9823 19.1182 59.6325C13.4559 57.2828 8.61735 53.307 5.21439 48.2076C1.81142 43.1083 -0.00317556 37.1144 4.17175e-06 30.9839C-7.743e-07 26.911 0.803021 22.878 2.36313 19.1157C3.92323 15.3535 6.2098 11.9357 9.09204 9.05791C11.9743 6.18016 15.3956 3.89892 19.1603 2.34467C22.925 0.790428 26.9593 -0.00630979 31.0322 3.76294e-05Z" fill="#F25C19"/>
<path d="M19 42H42V19H19V42Z" fill="#C4161D"/>
</svg>
